<?xml version="1.0" standalone="no"?>
<!DOCTYPE svg PUBLIC "-//W3C//DTD SVG 20010904//EN"
 "http://www.w3.org/TR/2001/REC-SVG-20010904/DTD/svg10.dtd">
<svg version="1.0" xmlns="http://www.w3.org/2000/svg"
 width="320.000000pt" height="320.000000pt" viewBox="0 0 320.000000 320.000000"
 preserveAspectRatio="xMidYMid meet">
<metadata>
Created by potrace 1.14, written by Peter Selinger 2001-2017
</metadata>
<g transform="translate(0.000000,320.000000) scale(0.100000,-0.100000)"
fill="#000000" stroke="none">
<path d="M1459 3006 c-2 -2 -29 -7 -59 -10 -193 -23 -427 -111 -602 -225 -101
-66 -115 -78 -233 -196 -149 -149 -258 -321 -324 -509 -37 -106 -47 -146 -71
-291 -8 -48 -6 -308 3 -370 8 -55 59 -250 69 -262 8 -9 27 -3 81 26 109 58
162 84 166 82 2 -2 7 2 10 7 3 6 13 12 21 14 8 2 21 9 28 16 8 7 18 10 23 7 5
-4 9 -2 9 3 0 10 160 98 172 95 4 -2 8 1 8 6 0 8 152 92 165 91 3 0 13 7 23
16 23 22 255 150 264 147 5 -2 8 2 8 7 0 6 5 10 11 10 6 0 30 13 53 30 24 16
50 30 57 32 8 2 16 6 19 10 10 12 215 131 228 131 6 0 12 3 12 7 0 7 85 57 85
50 0 -3 11 5 25 18 13 12 28 22 32 22 5 0 49 25 99 55 50 30 94 55 100 55 5 0
9 4 9 8 0 9 71 47 83 44 4 -1 7 2 7 7 0 5 8 11 18 15 9 3 57 30 106 61 49 30
90 55 91 55 2 0 34 19 71 42 38 23 75 41 82 41 6 0 12 4 12 8 0 4 28 24 63 45
34 21 64 41 67 44 3 4 13 6 22 5 9 -2 19 3 22 11 3 8 12 14 20 14 7 0 16 7 20
15 3 8 12 15 20 15 7 0 16 6 19 14 8 21 -146 164 -256 237 -249 164 -491 239
-793 245 -89 2 -163 2 -165 0z"/>
<path d="M2524 2064 c-175 -103 -402 -235 -504 -294 -102 -59 -401 -233 -665
-387 -264 -153 -585 -340 -712 -414 -128 -74 -233 -137 -233 -141 0 -3 29 -43
66 -87 244 -303 534 -473 915 -535 122 -20 377 -14 496 13 290 64 523 191 727
397 208 209 354 503 393 789 10 74 10 322 1 390 -9 60 -54 241 -67 270 -5 11
-19 46 -32 79 -12 32 -32 69 -44 82 l-22 23 -319 -185z"/>
</g>
</svg>
